#!OML:ASF C:\ViconDB\ViconDB\414\Spring2016\041811\Spring2016.ASF
:FULLY-SPECIFIED
:DEGREES
278
root 12.3801 17.7091 0.0218484 -180.612 -12.1343 -171.483
lowerback 1.28536 -0.636807 3.30323
upperback 1.56 -0.996759 3.0057
thorax 0.881105 -0.545893 1.23559
lowerneck -11.3641 -2.02396 -9.82665
upperneck 23.7954 -7.66721 18.7322
head 10.5548 -3.27342 7.44696
rclavicle 8.84592e-015 -4.95968e-014
rhumerus -87.684 33.296 -117.87
rradius 87.8257
rwrist 30.3364
rhand -47.8106 -4.4491
rfingers 7.12502
rthumb -20.4864 -33.3883
lclavicle 8.84592e-015 -4.95968e-014
lhumerus -80.9574 -43.0768 117.075
lradius 75.1282
lwrist -38.7653
lhand -50.1591 -0.934447
lfingers 7.12502
lthumb -22.7418 27.7452
rfemur 174.664 77.8403 -137.006
rtibia 39.5311
rfoot -95.1254 -51.0138
rtoes 1.33583e-013
lfemur -37.3439 -3.42734 -6.50209
ltibia 59.3687
lfoot -12.4355 0.360014
ltoes -4.6118e-014
279
root 12.4177 17.6898 -0.14273 -180.731 -12.1814 -171.048
lowerback 1.29416 -0.543218 3.25511
upperback 1.60292 -0.875098 3.01978
thorax 0.921436 -0.4857 1.2761
lowerneck -11.2127 -2.20881 -10.0147
upperneck 23.7059 -8.10392 19.2401
head 10.6036 -3.47837 7.61938
rclavicle 1.7667e-014 -6.08281e-014
rhumerus -87.5942 33.1432 -117.705
rradius 87.6958
rwrist 30.1358
rhand -47.8923 -4.07348
rfingers 7.12502
rthumb -20.5649 -33.0042
lclavicle 1.7667e-014 -6.08281e-014
lhumerus -80.9244 -43.2507 117.111
lradius 75.2974
lwrist -38.5993
lhand -50.0926 -1.28105
lfingers 7.12502
lthumb -22.6779 27.4065
rfemur 175.196 80.5479 -135.518
rtibia 39.7026
rfoot -98.2198 -50.1644
rtoes 1.55847e-013
lfemur -38.188 -4.3496 -6.26943
ltibia 57.3507
lfoot -12.9891 0.284403
ltoes 3.49861e-014
280
root 12.4563 17.6768 -0.306348 -180.831 -12.2747 -170.612
lowerback 1.27405 -0.487912 3.12772
upperback 1.63338 -0.805915 3.05654
thorax 0.966125 -0.452711 1.38431
lowerneck -10.9941 -2.3653 -10.0619
upperneck 23.5563 -8.50783 19.6842
head 10.6059 -3.66714 7.74068
rclavicle 7.67806e-015 -7.15625e-015
rhumerus -87.5695 33.1086 -117.582
rradius 87.6683
rwrist 29.8719
rhand -47.9219 -3.74984
rfingers 7.12502
rthumb -20.5934 -32.6775
lclavicle 7.67806e-015 -7.15625e-015
lhumerus -81.0135 -43.3719 117.193
lradius 75.5012
lwrist -38.7464
lhand -50.0934 -1.09066
lfingers 7.12502
lthumb -22.6788 27.5967
rfemur 175.542 82.914 -134.273
rtibia 39.8362
rfoot -100.753 -49.3365
rtoes -5.725e-014
lfemur -38.9725 -5.12069 -6.01569
ltibia 55.2553
lfoot -13.2696 -0.203901
ltoes -8.5875e-014
281
root 12.4929 17.6573 -0.471283 -180.92 -12.3812 -170.142
lowerback 1.26544 -0.506077 2.98483
upperback 1.61481 -0.835386 3.16263
thorax 0.955411 -0.471583 1.57343
lowerneck -10.8057 -2.45805 -10.1841
upperneck 23.5858 -8.78813 19.9734
head 10.6521 -3.81489 7.84243
rclavicle -1.44119e-014 -8.74653e-015
rhumerus -87.7381 33.2161 -117.637
rradius 87.8305
rwrist 28.3801
rhand -47.6826 -2.30264
rfingers 7.12502
rthumb -20.3634 -31.255
lclavicle -1.44119e-014 -8.74653e-015
lhumerus -80.863 -43.2332 117.209
lradius 75.578
lwrist -38.7298
lhand -49.952 -1.56587
lfingers 7.12502
lthumb -22.543 27.1381
rfemur 177.122 85.3045 -131.799
rtibia 39.917
rfoot -103.272 -48.5922
rtoes 3.02153e-014
lfemur -39.7091 -5.93198 -5.69637
ltibia 53.1465
lfoot -13.1818 -0.825913
ltoes -6.83819e-014
282
root 12.5291 17.642 -0.635835 -181.014 -12.4669 -169.739
lowerback 1.24844 -0.471841 2.93945
upperback 1.61625 -0.78514 3.09704
thorax 0.96551 -0.444211 1.53094
lowerneck -10.5106 -2.53769 -10.0105
upperneck 23.3987 -9.10699 20.3374
head 10.5993 -3.96095 7.89889
rclavicle -5.11622e-014 5.04913e-014
rhumerus -87.8193 33.1406 -117.709
rradius 87.8755
rwrist 27.8277
rhand -47.6767 -1.85301
rfingers 7.12502
rthumb -20.3577 -30.806
lclavicle -5.11622e-014 5.04913e-014
lhumerus -81.1278 -43.4272 117.303
lradius 75.8595
lwrist -38.6379
lhand -49.6903 -1.44679
lfingers 7.12502
lthumb -22.2918 27.2874
rfemur 177.601 87.2219 -130.562
rtibia 39.9317
rfoot -105.323 -47.6222
rtoes -5.24792e-014
lfemur -40.3439 -6.55941 -5.47318
ltibia 51.0432
lfoot -12.7823 -1.57416
ltoes -2.71341e-014
283
root 12.5665 17.6285 -0.798453 -181.086 -12.5854 -169.34
lowerback 1.24622 -0.431427 2.76817
upperback 1.6073 -0.733871 3.16716
thorax 0.960079 -0.421619 1.6987
lowerneck -10.2381 -2.66184 -10.2333
upperneck 23.196 -9.43129 20.8538
head 10.5737 -4.12868 8.09351
rclavicle 1.35174e-014 1.27222e-014
rhumerus -87.9166 33.2448 -117.575
rradius 88.0792
rwrist 26.7125
rhand -47.3892 -0.172472
rfingers 7.12502
rthumb -20.0815 -29.1547
lclavicle 1.35174e-014 1.27222e-014
lhumerus -81.2705 -43.5557 117.473
lradius 76.0932
lwrist -38.7238
lhand -49.6168 -1.53367
lfingers 7.12502
lthumb -22.2213 27.209
rfemur 176.133 88.8475 -131.34
rtibia 39.8563
rfoot -106.946 -46.751
rtoes -4.13472e-014
lfemur -40.9333 -7.1031 -5.25607
ltibia 48.9769
lfoot -12.1613 -2.57156
ltoes -1.98785e-014
284
root 12.6036 17.6162 -0.96335 -181.068 -12.662 -168.996
lowerback 1.11526 -0.395072 2.52947
upperback 1.60895 -0.691429 3.20682
thorax 1.03764 -0.402063 1.87169
lowerneck -9.97981 -2.76514 -10.5156
upperneck 22.9073 -9.76448 21.572
head 10.541 -4.29757 8.37644
rclavicle -5.54112e-014 3.29983e-014
rhumerus -88.1396 33.3931 -117.638
rradius 88.1014
rwrist 26.9282
rhand -47.4623 -1.08275
rfingers 7.12502
rthumb -20.1517 -30.0576
lclavicle -5.54112e-014 3.29983e-014
lhumerus -81.3069 -43.6545 117.601
lradius 76.2258
lwrist -38.4817
lhand -49.4753 -1.56246
lfingers 7.12502
lthumb -22.0854 27.1963
rfemur 259.366 90.1506 -47.5176
rtibia 39.7148
rfoot -108.165 -46.3468
rtoes -1.35174e-013
lfemur -41.5252 -7.63831 -5.03634
ltibia 47.0006
lfoot -11.3974 -3.5015
ltoes -2.8625e-014
285
root 12.6374 17.6099 -1.12525 -181.038 -12.7057 -168.508
lowerback 1.04031 -0.354406 2.53081
upperback 1.53664 -0.637427 3.24461
thorax 1.0051 -0.375353 1.90936
lowerneck -9.88761 -2.81138 -10.3589
upperneck 22.8975 -9.98806 21.7695
head 10.5712 -4.3976 8.39388
rclavicle -3.23025e-014 9.14409e-015
rhumerus -88.2441 33.3707 -117.696
rradius 87.9776
rwrist 27.019
rhand -47.5345 -0.51219
rfingers 7.12502
rthumb -20.2211 -29.4797
lclavicle -3.23025e-014 9.14409e-015
lhumerus -81.5423 -43.7399 117.806
lradius 76.402
lwrist -38.1755
lhand -49.3538 -1.71985
lfingers 7.12502
lthumb -21.9688 27.0526
rfemur 196.237 90.9577 -109.986
rtibia 39.48
rfoot -109.009 -46.0161
rtoes -1.39944e-013
lfemur -42.1443 -8.19688 -4.58768
ltibia 45.1423
lfoot -10.5691 -4.39791
ltoes 8.74653e-015
286
root 12.6685 17.5964 -1.28422 -180.966 -12.7903 -168.077
lowerback 0.861939 -0.344379 2.41086
upperback 1.5293 -0.636125 3.33757
thorax 1.09994 -0.37742 2.07076
lowerneck -9.64849 -2.87152 -10.3421
upperneck 22.6355 -10.1523 22.0498
head 10.479 -4.4823 8.4662
rclavicle 2.93207e-014 -1.74931e-014
rhumerus -88.5099 33.6432 -117.841
rradius 88.001
rwrist 27.0984
rhand -47.7891 -0.962673
rfingers 7.12502
rthumb -20.4657 -29.9041
lclavicle 2.93207e-014 -1.74931e-014
lhumerus -81.3972 -43.7484 117.874
lradius 76.4095
lwrist -38.1458
lhand -49.1839 -1.70854
lfingers 7.12502
lthumb -21.8056 27.083
rfemur 201.971 91.4401 -103.678
rtibia 39.2043
rfoot -109.424 -45.9662
rtoes 5.725e-014
lfemur -42.7949 -8.85399 -4.1807
ltibia 43.4465
lfoot -9.76798 -5.18939
ltoes -3.18055e-015
287
root 12.6965 17.5871 -1.44426 -180.842 -12.8216 -167.536
lowerback 0.577763 -0.269774 2.53598
upperback 1.52845 -0.554511 3.39669
thorax 1.25687 -0.336462 2.05955
lowerneck -9.52661 -2.97539 -10.5508
upperneck 22.3505 -10.4728 22.7282
head 10.4767 -4.63585 8.72296
rclavicle 2.39536e-014 -4.77083e-014
rhumerus -88.8167 33.8216 -118.115
rradius 87.9827
rwrist 27.9898
rhand -48.4942 -3.28208
rfingers 7.12502
rthumb -21.1432 -32.1492
lclavicle 2.39536e-014 -4.77083e-014
lhumerus -81.2346 -43.8836 117.912
lradius 76.3519
lwrist -38.0861
lhand -48.9263 -1.66166
lfingers 7.12502
lthumb -21.5583 27.1585
rfemur 205.672 91.8038 -99.3387
rtibia 38.8697
rfoot -109.634 -45.8803
rtoes 3.02153e-014
lfemur -43.429 -9.42308 -3.60667
ltibia 41.9262
lfoot -9.0048 -5.8591
ltoes 1.84472e-013
288
root 12.7207 17.5789 -1.60383 -180.743 -12.8171 -167.04
lowerback 0.356798 -0.187196 2.67047
upperback 1.52259 -0.458067 3.42554
thorax 1.37281 -0.287216 2.01321
lowerneck -9.39625 -3.05967 -10.554
upperneck 22.0962 -10.7331 23.1789
head 10.4482 -4.75729 8.85666
rclavicle 8.64713e-015 3.65764e-014
rhumerus -88.9916 33.9405 -118.273
rradius 88.0464
rwrist 27.6476
rhand -48.336 -2.8509
rfingers 7.12502
rthumb -20.9912 -31.7349
lclavicle 8.64713e-015 3.65764e-014
lhumerus -81.107 -44.0331 117.957
lradius 76.2164
lwrist -38.1355
lhand -49.0089 -1.4162
lfingers 7.12502
lthumb -21.6376 27.3948
rfemur 223.135 91.8877 -81.2959
rtibia 38.5256
rfoot -109.155 -46.1878
rtoes -9.06458e-014
lfemur -44.0314 -10.0525 -3.00563
ltibia 40.6006
lfoot -8.24219 -6.38373
ltoes 7.4743e-014
289
root 12.7462 17.5692 -1.76467 -180.651 -12.776 -166.608
lowerback 0.161937 -0.105786 2.64186
upperback 1.524 -0.363969 3.50427
thorax 1.48309 -0.242212 2.11043
lowerneck -9.32309 -3.1507 -10.5483
upperneck 21.9144 -10.9586 23.4806
head 10.4402 -4.86224 8.93669
rclavicle -8.15017e-015 -5.40694e-014
rhumerus -89.2577 34.1461 -118.445
rradius 88.1402
rwrist 27.2769
rhand -48.3655 -2.64822
rfingers 7.12502
rthumb -21.0196 -31.5291
lclavicle -8.15017e-015 -5.40694e-014
lhumerus -80.9142 -44.0753 118.037
lradius 76.0968
lwrist -38.135
lhand -48.8879 -1.05893
lfingers 7.12502
lthumb -21.5214 27.7654
rfemur 243.513 92.1198 -60.3998
rtibia 38.1757
rfoot -108.479 -46.2923
rtoes 1.28812e-013
lfemur -44.4994 -10.4356 -2.58842
ltibia 39.4516
lfoot -7.51394 -6.94943
ltoes -1.145e-013
290
root 12.765 17.5556 -1.92968 -180.568 -12.6429 -166.157
lowerback -0.0373321 -0.0282133 2.71027
upperback 1.51782 -0.275541 3.56164
thorax 1.58745 -0.198702 2.13179
lowerneck -9.24449 -3.19875 -10.5046
upperneck 21.7697 -11.1359 23.7599
head 10.431 -4.9457 9.00906
rclavicle -3.598e-014 -5.32743e-014
rhumerus -89.6825 34.4476 -118.855
rradius 88.1264
rwrist 27.4502
rhand -48.737 -3.45376
rfingers 7.12502
rthumb -21.3764 -32.2946
lclavicle -3.598e-014 -5.32743e-014
lhumerus -80.6368 -43.9812 117.998
lradius 75.8177
lwrist -38.4077
lhand -49.0008 -0.481912
lfingers 7.12502
lthumb -21.6298 28.33
rfemur 263.606 92.6534 -39.7643
rtibia 37.8446
rfoot -107.531 -46.5126
rtoes 6.99722e-014
lfemur -44.852 -10.7833 -2.15712
ltibia 38.49
lfoot -6.78378 -7.27596
ltoes 1.33583e-013
